<?xml version="1.0" encoding="UTF-8" standalone="no"?>
<!DOCTYPE svg PUBLIC "-//W3C//DTD SVG 1.1//EN"
 "http://www.w3.org/Graphics/SVG/1.1/DTD/svg11.dtd">
<!-- Generated by graphviz version 12.2.1 (20241206.2353)
 -->
<!-- Title: FlowNetwork Pages: 1 -->
<svg width="398pt" height="1873pt"
 viewBox="0.00 0.00 398.08 1872.88" xmlns="http://www.w3.org/2000/svg" xmlns:xlink="http://www.w3.org/1999/xlink">
<g id="graph0" class="graph" transform="scale(1 1) rotate(0) translate(4 1868.88)">
<title>FlowNetwork</title>
<polygon fill="white" stroke="none" points="-4,4 -4,-1868.88 394.08,-1868.88 394.08,4 -4,4"/>
<!-- Pedro Marquez -->
<g id="node1" class="node">
<title>Pedro Marquez</title>
<ellipse fill="none" stroke="black" cx="81.04" cy="-337.84" rx="56.26" ry="56.26"/>
<text text-anchor="middle" x="81.04" y="-334.14" font-family="Arial" font-size="11.00" fill="blue">Pedro Marquez</text>
</g>
<!-- Desarrollo de funcion -->
<g id="node12" class="node">
<title>Desarrollo de funcion</title>
<ellipse fill="none" stroke="black" cx="294.08" cy="-529.84" rx="73.56" ry="73.56"/>
<text text-anchor="middle" x="294.08" y="-526.14" font-family="Arial" font-size="11.00" fill="blue">Desarrollo de funcion</text>
</g>
<!-- Pedro Marquez&#45;&gt;Desarrollo de funcion -->
<g id="edge8" class="edge">
<title>Pedro Marquez&#45;&gt;Desarrollo de funcion</title>
<path fill="none" stroke="black" d="M126.62,-371.39C138.56,-381.08 151.17,-391.98 162.08,-402.84 179.98,-420.68 180.5,-428.69 198.08,-446.84 207.58,-456.65 218.08,-466.61 228.54,-476.05"/>
<polygon fill="black" stroke="black" points="225.97,-478.45 235.77,-482.5 230.63,-473.23 225.97,-478.45"/>
</g>
<!-- Bug Fix en proyecto -->
<g id="node16" class="node">
<title>Bug Fix en proyecto</title>
<ellipse fill="none" stroke="black" cx="294.08" cy="-690.84" rx="69.82" ry="69.82"/>
<text text-anchor="middle" x="294.08" y="-687.14" font-family="Arial" font-size="11.00" fill="blue">Bug Fix en proyecto</text>
</g>
<!-- Pedro Marquez&#45;&gt;Bug Fix en proyecto -->
<g id="edge1" class="edge">
<title>Pedro Marquez&#45;&gt;Bug Fix en proyecto</title>
<path fill="none" stroke="black" d="M129.51,-367.18C141.91,-377.05 154.04,-389.09 162.08,-402.84 209.89,-484.58 150.49,-530.98 198.08,-612.84 205.34,-625.34 215.41,-636.69 226.3,-646.61"/>
<polygon fill="black" stroke="black" points="223.75,-649.04 233.6,-652.93 228.33,-643.74 223.75,-649.04"/>
</g>
<!-- Test de nueva función -->
<g id="node17" class="node">
<title>Test de nueva función</title>
<ellipse fill="none" stroke="black" cx="294.08" cy="-362.84" rx="74.96" ry="74.96"/>
<text text-anchor="middle" x="294.08" y="-359.14" font-family="Arial" font-size="11.00" fill="blue">Test de nueva función</text>
</g>
<!-- Pedro Marquez&#45;&gt;Test de nueva función -->
<g id="edge10" class="edge">
<title>Pedro Marquez&#45;&gt;Test de nueva función</title>
<path fill="none" stroke="black" d="M137.21,-344.38C158.83,-346.94 184.12,-349.94 207.97,-352.76"/>
<polygon fill="black" stroke="black" points="207.32,-356.21 217.67,-353.91 208.15,-349.26 207.32,-356.21"/>
</g>
<!-- Server Fixes -->
<g id="node18" class="node">
<title>Server Fixes</title>
<ellipse fill="none" stroke="black" cx="294.08" cy="-47.84" rx="47.84" ry="47.84"/>
<text text-anchor="middle" x="294.08" y="-44.14" font-family="Arial" font-size="11.00" fill="blue">Server Fixes</text>
</g>
<!-- Pedro Marquez&#45;&gt;Server Fixes -->
<g id="edge16" class="edge">
<title>Pedro Marquez&#45;&gt;Server Fixes</title>
<path fill="none" stroke="black" d="M126.04,-303.54C139.39,-291.1 152.93,-276.07 162.08,-259.84 196.81,-198.23 156.45,-162.02 198.08,-104.84 208.57,-90.43 223.92,-78.98 239.24,-70.24"/>
<polygon fill="black" stroke="black" points="240.74,-73.4 247.91,-65.6 237.44,-67.23 240.74,-73.4"/>
</g>
<!-- Optimizacion de Query -->
<g id="node20" class="node">
<title>Optimizacion de Query</title>
<ellipse fill="none" stroke="black" cx="294.08" cy="-191.84" rx="77.77" ry="77.77"/>
<text text-anchor="middle" x="294.08" y="-188.14" font-family="Arial" font-size="11.00" fill="blue">Optimizacion de Query</text>
</g>
<!-- Pedro Marquez&#45;&gt;Optimizacion de Query -->
<g id="edge19" class="edge">
<title>Pedro Marquez&#45;&gt;Optimizacion de Query</title>
<path fill="none" stroke="black" d="M127.83,-306.16C154.86,-287.47 189.68,-263.38 220.38,-242.14"/>
<polygon fill="black" stroke="black" points="222.29,-245.08 228.52,-236.51 218.31,-239.32 222.29,-245.08"/>
</g>
<!-- Juan Lopez -->
<g id="node2" class="node">
<title>Juan Lopez</title>
<ellipse fill="none" stroke="black" cx="81.04" cy="-665.84" rx="44.57" ry="44.57"/>
<text text-anchor="middle" x="81.04" y="-662.14" font-family="Arial" font-size="11.00" fill="blue">Juan Lopez</text>
</g>
<!-- Maria Perez -->
<g id="node3" class="node">
<title>Maria Perez</title>
<ellipse fill="none" stroke="black" cx="81.04" cy="-204.84" rx="46.44" ry="46.44"/>
<text text-anchor="middle" x="81.04" y="-201.14" font-family="Arial" font-size="11.00" fill="blue">Maria Perez</text>
</g>
<!-- Maria Perez&#45;&gt;Desarrollo de funcion -->
<g id="edge5" class="edge">
<title>Maria Perez&#45;&gt;Desarrollo de funcion</title>
<path fill="none" stroke="black" d="M120.88,-229.45C135.93,-240.88 151.94,-255.75 162.08,-272.84 202.36,-340.77 158.27,-378.64 198.08,-446.84 205.14,-458.93 214.59,-470.16 224.81,-480.2"/>
<polygon fill="black" stroke="black" points="222.33,-482.68 232.03,-486.96 227.12,-477.57 222.33,-482.68"/>
</g>
<!-- Maria Perez&#45;&gt;Test de nueva función -->
<g id="edge6" class="edge">
<title>Maria Perez&#45;&gt;Test de nueva función</title>
<path fill="none" stroke="black" d="M118.8,-232.37C147.98,-254.21 189.58,-285.35 224.82,-311.74"/>
<polygon fill="black" stroke="black" points="222.31,-314.23 232.42,-317.43 226.51,-308.63 222.31,-314.23"/>
</g>
<!-- Maria Perez&#45;&gt;Server Fixes -->
<g id="edge17" class="edge">
<title>Maria Perez&#45;&gt;Server Fixes</title>
<path fill="none" stroke="black" d="M115.55,-173.26C138.08,-152.73 168.87,-125.95 198.08,-104.84 211.89,-94.87 227.51,-84.97 242.04,-76.29"/>
<polygon fill="black" stroke="black" points="243.74,-79.35 250.58,-71.26 240.19,-73.32 243.74,-79.35"/>
</g>
<!-- Maria Perez&#45;&gt;Optimizacion de Query -->
<g id="edge20" class="edge">
<title>Maria Perez&#45;&gt;Optimizacion de Query</title>
<path fill="none" stroke="black" d="M127.83,-202.02C150.43,-200.63 178.47,-198.9 205,-197.27"/>
<polygon fill="black" stroke="black" points="204.98,-200.78 214.74,-196.67 204.55,-193.79 204.98,-200.78"/>
</g>
<!-- Monica Giraldo -->
<g id="node4" class="node">
<title>Monica Giraldo</title>
<ellipse fill="none" stroke="black" cx="81.04" cy="-466.84" rx="54.86" ry="54.86"/>
<text text-anchor="middle" x="81.04" y="-463.14" font-family="Arial" font-size="11.00" fill="blue">Monica Giraldo</text>
</g>
<!-- Monica Giraldo&#45;&gt;Desarrollo de funcion -->
<g id="edge2" class="edge">
<title>Monica Giraldo&#45;&gt;Desarrollo de funcion</title>
<path fill="none" stroke="black" d="M133.94,-482.34C157.64,-489.41 186.27,-497.96 212.66,-505.84"/>
<polygon fill="black" stroke="black" points="211.4,-509.11 221.98,-508.62 213.4,-502.41 211.4,-509.11"/>
</g>
<!-- Monica Giraldo&#45;&gt;Bug Fix en proyecto -->
<g id="edge7" class="edge">
<title>Monica Giraldo&#45;&gt;Bug Fix en proyecto</title>
<path fill="none" stroke="black" d="M113.54,-511.34C135.69,-541.35 166.85,-581.12 198.08,-612.84 207.77,-622.69 218.62,-632.53 229.44,-641.76"/>
<polygon fill="black" stroke="black" points="227.02,-644.29 236.93,-648.04 231.52,-638.93 227.02,-644.29"/>
</g>
<!-- Monica Giraldo&#45;&gt;Test de nueva función -->
<g id="edge4" class="edge">
<title>Monica Giraldo&#45;&gt;Test de nueva función</title>
<path fill="none" stroke="black" d="M130.72,-442.85C156.09,-430.35 187.71,-414.77 216.29,-400.69"/>
<polygon fill="black" stroke="black" points="217.48,-404 224.9,-396.44 214.38,-397.73 217.48,-404"/>
</g>
<!-- Monica Giraldo&#45;&gt;Server Fixes -->
<g id="edge18" class="edge">
<title>Monica Giraldo&#45;&gt;Server Fixes</title>
<path fill="none" stroke="black" d="M128.69,-439.31C141.54,-429.43 154.11,-417.14 162.08,-402.84 227,-286.3 125.49,-216.78 198.08,-104.84 207.87,-89.75 223.18,-78.08 238.68,-69.34"/>
<polygon fill="black" stroke="black" points="240.26,-72.47 247.49,-64.72 237.01,-66.27 240.26,-72.47"/>
</g>
<!-- Monica Giraldo&#45;&gt;Optimizacion de Query -->
<g id="edge21" class="edge">
<title>Monica Giraldo&#45;&gt;Optimizacion de Query</title>
<path fill="none" stroke="black" d="M128.13,-437.8C140.64,-428.02 153.18,-416.16 162.08,-402.84 193.98,-355.14 167.79,-327.59 198.08,-278.84 205.25,-267.3 214.37,-256.34 224.11,-246.33"/>
<polygon fill="black" stroke="black" points="226.29,-249.09 230.95,-239.58 221.37,-244.11 226.29,-249.09"/>
</g>
<!-- Carlos Mendez -->
<g id="node5" class="node">
<title>Carlos Mendez</title>
<ellipse fill="none" stroke="black" cx="81.04" cy="-864.84" rx="55.33" ry="55.33"/>
<text text-anchor="middle" x="81.04" y="-861.14" font-family="Arial" font-size="11.00" fill="blue">Carlos Mendez</text>
</g>
<!-- Idea campana publicitaria -->
<g id="node13" class="node">
<title>Idea campana publicitaria</title>
<ellipse fill="none" stroke="black" cx="294.08" cy="-864.84" rx="86.18" ry="86.18"/>
<text text-anchor="middle" x="294.08" y="-861.14" font-family="Arial" font-size="11.00" fill="blue">Idea campana publicitaria</text>
</g>
<!-- Carlos Mendez&#45;&gt;Idea campana publicitaria -->
<g id="edge11" class="edge">
<title>Carlos Mendez&#45;&gt;Idea campana publicitaria</title>
<path fill="none" stroke="black" d="M136.66,-864.84C154.9,-864.84 175.81,-864.84 196.28,-864.84"/>
<polygon fill="black" stroke="black" points="196.07,-868.34 206.07,-864.84 196.07,-861.34 196.07,-868.34"/>
</g>
<!-- Luis Silva -->
<g id="node6" class="node">
<title>Luis Silva</title>
<ellipse fill="none" stroke="black" cx="81.04" cy="-1316.84" rx="38.49" ry="38.49"/>
<text text-anchor="middle" x="81.04" y="-1313.14" font-family="Arial" font-size="11.00" fill="blue">Luis Silva</text>
</g>
<!-- Crear paleta de colores -->
<g id="node11" class="node">
<title>Crear paleta de colores</title>
<ellipse fill="none" stroke="black" cx="294.08" cy="-1444.84" rx="80.1" ry="80.1"/>
<text text-anchor="middle" x="294.08" y="-1441.14" font-family="Arial" font-size="11.00" fill="blue">Crear paleta de colores</text>
</g>
<!-- Luis Silva&#45;&gt;Crear paleta de colores -->
<g id="edge3" class="edge">
<title>Luis Silva&#45;&gt;Crear paleta de colores</title>
<path fill="none" stroke="black" d="M114.85,-1335.89C129.37,-1344.37 146.62,-1354.53 162.08,-1363.84 179.57,-1374.38 198.28,-1385.84 215.93,-1396.73"/>
<polygon fill="black" stroke="black" points="213.97,-1399.64 224.32,-1401.92 217.65,-1393.69 213.97,-1399.64"/>
</g>
<!-- Rediseno de pagina web -->
<g id="node14" class="node">
<title>Rediseno de pagina web</title>
<ellipse fill="none" stroke="black" cx="294.08" cy="-1262.84" rx="84.31" ry="84.31"/>
<text text-anchor="middle" x="294.08" y="-1259.14" font-family="Arial" font-size="11.00" fill="blue">Rediseno de pagina web</text>
</g>
<!-- Luis Silva&#45;&gt;Rediseno de pagina web -->
<g id="edge14" class="edge">
<title>Luis Silva&#45;&gt;Rediseno de pagina web</title>
<path fill="none" stroke="black" d="M118.8,-1307.44C141.63,-1301.6 172.06,-1293.81 201.1,-1286.38"/>
<polygon fill="black" stroke="black" points="201.86,-1289.8 210.68,-1283.93 200.12,-1283.02 201.86,-1289.8"/>
</g>
<!-- Desarrollo de nueva pestana -->
<g id="node15" class="node">
<title>Desarrollo de nueva pestana</title>
<ellipse fill="none" stroke="black" cx="294.08" cy="-1064.84" rx="96" ry="96"/>
<text text-anchor="middle" x="294.08" y="-1061.14" font-family="Arial" font-size="11.00" fill="blue">Desarrollo de nueva pestana</text>
</g>
<!-- Luis Silva&#45;&gt;Desarrollo de nueva pestana -->
<g id="edge12" class="edge">
<title>Luis Silva&#45;&gt;Desarrollo de nueva pestana</title>
<path fill="none" stroke="black" d="M117.37,-1302.76C132.89,-1295.04 150.24,-1284.11 162.08,-1269.84 192.25,-1233.49 173.77,-1210.35 198.08,-1169.84 203.97,-1160.02 210.87,-1150.29 218.21,-1140.95"/>
<polygon fill="black" stroke="black" points="220.83,-1143.28 224.41,-1133.3 215.4,-1138.87 220.83,-1143.28"/>
</g>
<!-- Valeska Perez -->
<g id="node7" class="node">
<title>Valeska Perez</title>
<ellipse fill="none" stroke="black" cx="81.04" cy="-1207.84" rx="52.99" ry="52.99"/>
<text text-anchor="middle" x="81.04" y="-1204.14" font-family="Arial" font-size="11.00" fill="blue">Valeska Perez</text>
</g>
<!-- Valeska Perez&#45;&gt;Crear paleta de colores -->
<g id="edge9" class="edge">
<title>Valeska Perez&#45;&gt;Crear paleta de colores</title>
<path fill="none" stroke="black" d="M126.38,-1235.78C139.14,-1245.39 152.24,-1257.01 162.08,-1269.84 187.29,-1302.73 174.44,-1321.82 198.08,-1355.84 205.53,-1366.57 214.47,-1377 223.83,-1386.7"/>
<polygon fill="black" stroke="black" points="221.17,-1388.99 230.71,-1393.61 226.13,-1384.05 221.17,-1388.99"/>
</g>
<!-- Valeska Perez&#45;&gt;Rediseno de pagina web -->
<g id="edge15" class="edge">
<title>Valeska Perez&#45;&gt;Rediseno de pagina web</title>
<path fill="none" stroke="black" d="M132.86,-1221.09C153.39,-1226.44 177.74,-1232.79 201.18,-1238.89"/>
<polygon fill="black" stroke="black" points="200.2,-1242.26 210.76,-1241.39 201.97,-1235.48 200.2,-1242.26"/>
</g>
<!-- Valeska Perez&#45;&gt;Desarrollo de nueva pestana -->
<g id="edge13" class="edge">
<title>Valeska Perez&#45;&gt;Desarrollo de nueva pestana</title>
<path fill="none" stroke="black" d="M125.51,-1178.39C148.49,-1162.82 177.57,-1143.12 205.02,-1124.51"/>
<polygon fill="black" stroke="black" points="206.69,-1127.61 213,-1119.11 202.76,-1121.82 206.69,-1127.61"/>
</g>
<!-- Lucas Pop -->
<g id="node8" class="node">
<title>Lucas Pop</title>
<ellipse fill="none" stroke="black" cx="81.04" cy="-1414.84" rx="41.77" ry="41.77"/>
<text text-anchor="middle" x="81.04" y="-1411.14" font-family="Arial" font-size="11.00" fill="blue">Lucas Pop</text>
</g>
<!-- Mateo Rojas -->
<g id="node9" class="node">
<title>Mateo Rojas</title>
<ellipse fill="none" stroke="black" cx="81.04" cy="-1522.84" rx="47.84" ry="47.84"/>
<text text-anchor="middle" x="81.04" y="-1519.14" font-family="Arial" font-size="11.00" fill="blue">Mateo Rojas</text>
</g>
<!-- Lucia Vielma -->
<g id="node10" class="node">
<title>Lucia Vielma</title>
<ellipse fill="none" stroke="black" cx="81.04" cy="-1636.84" rx="48.31" ry="48.31"/>
<text text-anchor="middle" x="81.04" y="-1633.14" font-family="Arial" font-size="11.00" fill="blue">Lucia Vielma</text>
</g>
<!-- Optimizacion de funcion -->
<g id="node19" class="node">
<title>Optimizacion de funcion</title>
<ellipse fill="none" stroke="black" cx="81.04" cy="-1783.84" rx="81.04" ry="81.04"/>
<text text-anchor="middle" x="81.04" y="-1780.14" font-family="Arial" font-size="11.00" fill="blue">Optimizacion de funcion</text>
</g>
</g>
</svg>
